<?xml version="1.0" encoding="utf-8"?>
<!-- Generator: Adobe Illustrator 19.2.1, SVG Export Plug-In . SVG Version: 6.00 Build 0)  -->
<svg version="1.1" id="Layer_2" xmlns="http://www.w3.org/2000/svg" xmlns:xlink="http://www.w3.org/1999/xlink" x="0px" y="0px"
	 viewBox="0 0 50 50" style="enable-background:new 0 0 50 50;" xml:space="preserve">
<style type="text/css">
	.st0{fill:#FFFFFF;stroke:#FFFFFF;stroke-miterlimit:10;}
</style>
<path class="st0" d="M36.9,0.5H13.1c-1.1,0-2,0.9-2,2v45c0,1.1,0.9,2,2,2h23.8c1.1,0,2-0.9,2-2v-45C38.9,1.4,38,0.5,36.9,0.5z
	 M25,47.9c-1.2,0-2.2-1-2.2-2.2c0-1.2,1-2.2,2.2-2.2s2.2,1,2.2,2.2C27.2,46.9,26.2,47.9,25,47.9z M37.2,39.5c0,1.1-0.9,2-2,2H14.7
	c-1.1,0-2-0.9-2-2V4.1c0-1.1,0.9-2,2-2h20.5c1.1,0,2,0.9,2,2V39.5z"/>
</svg>
